<svg id="Layer_1" data-name="Layer 1" xmlns="http://www.w3.org/2000/svg" viewBox="0 0 832.43 388.39"><defs><style>.cls-1,.cls-2{fill:#8c75ff;}.cls-1{opacity:0.9;}</style></defs><path d="M142.8,286.59v-3a33.74,33.74,0,0,0,4.35-.6,34.83,34.83,0,0,0,7.2-2.1,20.48,20.48,0,0,0,6.6-4.2,9.07,9.07,0,0,0,2.85-6.9,39.45,39.45,0,0,0-1.65-8.85q-1.65-6.13-4.65-15t-6.9-19.65q-3.9-10.8-8.4-22.5H62.4q-4.5,11.42-8.7,21.75t-8.4,20.85q-6.3,16.2-6.3,22.8a9,9,0,0,0,2.4,6.45,18.3,18.3,0,0,0,6.15,4.2,33.72,33.72,0,0,0,8.1,2.4q4.35.76,8.25,1.35v3H0v-3.3a33.16,33.16,0,0,0,13.35-4.2q5.55-3.29,6.45-4.5,2.1-2.08,6.9-9.9a215.63,215.63,0,0,0,11.7-23.1q6.3-14.09,14.1-32.1t16-37.05q8.25-19,16.35-38.4t15.3-36.15l-3-6.6a48,48,0,0,0,9.75-5.7,56.7,56.7,0,0,0,7.65-6.9,61.23,61.23,0,0,0,5.55-6.9q2.25-3.29,3.45-5.4H126q9.3,24.92,17.7,47.25t16.05,43.05q7.65,20.7,14.85,40.05T189,235q3.3,9.31,6.15,15.45l6.45,13.95a38.79,38.79,0,0,0,2.7,4.2,37.61,37.61,0,0,0,5.55,6.15,33.85,33.85,0,0,0,8.55,5.55,30.81,30.81,0,0,0,12,2.7v3.6Zm-.6-82.8-12.75-33.3q-5.25-13.5-10.2-26t-9-22.8q-4.05-10.35-6.75-16.95-1.8,3.92-5.25,12.3t-8.55,20.4q-5.1,12-11.25,27.15L62.4,203.79"/><path d="M374.67,388.39q-2.7-2.7-3.9-4.05t-2.7-3.15a58.59,58.59,0,0,1-3.75-5.25q-2.25-3.45-7.05-10.35-5.7-8.4-10-15.15t-8.85-13.35q-4.5-6.6-9.75-13.35t-12.45-15.15a122.33,122.33,0,0,0-13.05-12.9,32.27,32.27,0,0,0-14.85-7.5,45.92,45.92,0,0,0-8.7-1.2q-2.7,0-6.9-.3v33.9q0,14.4.3,24.3.3,9.6.6,16.5a21.92,21.92,0,0,0,3.3,11.4q2.4,3.9,9.3,7.95t19.2,4.65v3h-96v-3a84.27,84.27,0,0,0,14.4-3.6,23.42,23.42,0,0,0,10.8-7.2,13.62,13.62,0,0,0,2.4-5.4,56.9,56.9,0,0,0,1.35-8.1q.45-4.5.75-9.6t.3-9.9q0-4.2.15-11.4t.3-15.75q.15-8.55.15-17.55V221q0-5.4-.15-11t-.6-10.5a56.25,56.25,0,0,0-1.5-9,12.76,12.76,0,0,0-2.85-5.85,22.53,22.53,0,0,0-10.05-6.45,100.47,100.47,0,0,0-13.65-2.85v-3h12.3q10.2,0,23.1-.15t25.8-.15h21q20.1,0,35.7,1.2a71.31,71.31,0,0,1,28.5,8.1,57.71,57.71,0,0,1,21.3,18.75Q387,212,387,230a47.41,47.41,0,0,1-4.05,19.95,53.13,53.13,0,0,1-10.8,15.6,66,66,0,0,1-15.75,11.55,122.19,122.19,0,0,1-18.9,8.1v.9a38.52,38.52,0,0,1,9.9,7.8,109.26,109.26,0,0,1,9.3,11.4q7.8,11.4,16.95,24.6T390,353.29q11.1,15.6,21.6,22.8a57.93,57.93,0,0,0,24.6,9.3v3ZM345,201.49q-7.5-11.7-21.9-18.6a65.25,65.25,0,0,0-15.15-4.8,89.67,89.67,0,0,0-16.65-1.5q-6.3,0-10.2.3t-6,.6q-.3,1.8-.6,3.15a24.39,24.39,0,0,0-.45,3.45q-.15,2.1-.3,5.85t-.45,10.65q-.3,10.5-.45,23.7t-.15,25.5v33q12.3,0,22.95-1.05a93.91,93.91,0,0,0,20.55-4.35,55.23,55.23,0,0,0,16.5-8.1,47.26,47.26,0,0,0,11.25-11.55,47.88,47.88,0,0,0,6.45-14,57.58,57.58,0,0,0,2.1-15.6A48.4,48.4,0,0,0,345,201.49Z"/><path d="M610.47,353a58.38,58.38,0,0,1-16.2,19.5,68.83,68.83,0,0,1-24.75,12,120.68,120.68,0,0,1-31.5,3.9,151.64,151.64,0,0,1-25.2-1.8,99.83,99.83,0,0,1-17.4-4.35,62.9,62.9,0,0,1-10.35-4.65q-3.45-2.1-4.35-2.1t-3.9,3.6q-3,3.6-5.4,6.9h-2.7l-.9-59.7h3a95.29,95.29,0,0,0,6.9,15.75,130.57,130.57,0,0,0,9.15,14.4,81.35,81.35,0,0,0,10.5,11.85,52.14,52.14,0,0,0,10.65,7.8,85.45,85.45,0,0,0,13.5,5.4,52.86,52.86,0,0,0,16.2,2.7q22.2,0,36-12.15t13.8-32.85a37.08,37.08,0,0,0-2.7-14.7,34.57,34.57,0,0,0-7.35-10.95,44.64,44.64,0,0,0-11-8,119.49,119.49,0,0,0-13.5-6q-7.2-2.7-12.6-4.5t-10-3.45q-4.65-1.65-9.6-3.3T508.92,284a65.08,65.08,0,0,1-15-8.25,61.22,61.22,0,0,1-12.6-12.3,62.52,62.52,0,0,1-8.7-15.6,50,50,0,0,1-3.3-18.15q0-16.2,5.92-27.9a57,57,0,0,1,15.9-19.5,67,67,0,0,1,23-11.55A98.92,98.92,0,0,1,541.62,167a102.59,102.59,0,0,1,23.1,2.25,92.44,92.44,0,0,1,15.75,4.95,53.94,53.94,0,0,1,9.3,4.95,21,21,0,0,0,3.45,2.25q.9,0,3.75-3.6t5.25-7.2h3.3v55.5h-3.3a120.63,120.63,0,0,0-9.3-19.65,88.55,88.55,0,0,0-13.2-17.4,63.64,63.64,0,0,0-17.1-12.45,47,47,0,0,0-21.3-4.8,56.08,56.08,0,0,0-17.55,2.7,40.76,40.76,0,0,0-14.4,8.1,37.18,37.18,0,0,0-9.6,13.35,45.2,45.2,0,0,0-3.45,18.15q0,15.9,9.58,25.5t24.84,15.3q6,2.4,11.22,4.2t10.32,3.45q5.09,1.65,10.32,3.45t10.93,3.9q20.36,7.5,31.57,21.75t11.22,35.55A55.69,55.69,0,0,1,610.47,353Z"/><circle class="cls-1" cx="427.51" cy="43.31" r="21.5"/><path class="cls-2" d="M102.78,162.9v0Z"/><path class="cls-2" d="M102.77,162.3v.6C102.78,162.52,102.77,162.3,102.77,162.3Z"/><path d="M491.23,75.66q-6.68,2-12.89,3.33a92.6,92.6,0,0,1-15.79,1.59q-11,0-19.69.15H407.6l3.18,4.92V198q0,8.68-.14,16.8t-.29,14.77q-.15,6.66-.15,10.71,0,4.63-.14,9.56t-.58,9.12a69.54,69.54,0,0,1-1.16,7.53,9.64,9.64,0,0,1-2.17,4.78q-6.67,7.54-13.62,9.56a87.56,87.56,0,0,1-14.48,2.9v2.89h94.13V283.7a142.29,142.29,0,0,1-14.33-3.48,21.6,21.6,0,0,1-12.31-8.69q-2.32-3.18-2.75-10.86t-.44-16.07V131.35q0-13.6.15-26.07.13-11.79.14-18.9a80.82,80.82,0,0,1,18,2.17,30.44,30.44,0,0,1,13.18,7.67,43.75,43.75,0,0,1,5.5,6.23q3.19,4.2,6.52,9.12t6.52,10.57q3.18,5.65,5.5,10.87l2.61-.87Z"/><path d="M794.62,179.79v64.5c0,5.81.1,11.4.3,16.8s1.1,9.21,2.7,11.4a22.48,22.48,0,0,0,10.2,7.8,45.1,45.1,0,0,0,12.9,3.3v3h-88.5v-3a63.09,63.09,0,0,0,14.4-4,27,27,0,0,0,10.5-7.05,12.21,12.21,0,0,0,2-4.95,70.72,70.72,0,0,0,1.2-8c.3-3,.55-6.24.75-9.75s.3-6.84.3-10.05c0-2.79,0-6.6.15-11.4s.2-10,.3-15.75.15-11.55.15-17.55v-76.7c0-3.6-.15-6.94-.45-10a62.09,62.09,0,0,0-1.35-8.4,14,14,0,0,0-2.7-5.85,23.85,23.85,0,0,0-10.35-7.35,60.94,60.94,0,0,0-14-3.15v-3h89.4v3q-4.2.61-9,1.8a28.8,28.8,0,0,0-8.7,3.75,21.47,21.47,0,0,0-6.6,7,24,24,0,0,0-3,11.4q-.3,10.51-.45,22.65c-.1,8.1-.15,5.86-.15,13.25v36.3Z"/><path class="cls-1" d="M664.39,190.58v11.1s-.25-12.85,22.82-21.86c0,0,31.63-11.84,56.19,1.13,0,0,15.55,8.13,18.52,21.93l38.14-16.06s-5.6-24-39.13-31c0,0-34.12-7.14-70.7,13.15C690.23,169,674.62,176.68,664.39,190.58Z"/><path d="M667.92,179.79v64.5c0,5.81.1,11.4.3,16.8s1.1,9.21,2.7,11.4a22.48,22.48,0,0,0,10.2,7.8,45.1,45.1,0,0,0,12.9,3.3v3h-88.5v-3a63.09,63.09,0,0,0,14.4-4,27,27,0,0,0,10.5-7.05,12.21,12.21,0,0,0,2-4.95,70.72,70.72,0,0,0,1.2-8c.3-3,.55-6.24.75-9.75s.3-6.84.3-10.05c0-2.79,0-6.6.15-11.4s.2-10,.3-15.75.15-11.55.15-17.55v-76.7c0-3.6-.15-6.94-.45-10a62.09,62.09,0,0,0-1.35-8.4,14,14,0,0,0-2.7-5.85,23.85,23.85,0,0,0-10.35-7.35,60.94,60.94,0,0,0-14-3.15v-3h89.4v3q-4.2.61-9,1.8a28.8,28.8,0,0,0-8.7,3.75,21.47,21.47,0,0,0-6.6,7,24,24,0,0,0-3,11.4q-.3,10.51-.45,22.65c-.1,8.1-.15,5.86-.15,13.25v36.3Z"/><path class="cls-2" d="M63.2,202.28c37.33,2.23,39.11,32.6,39.12,38.28,0-5.68,1.79-36.05,39.12-38.28-37.33-2.22-39.11-32.59-39.12-38.27C102.31,169.69,100.53,200.06,63.2,202.28Z"/></svg>